<?xml version="1.0" encoding="utf-8"?>
<!-- Generator: Adobe Illustrator 16.0.4, SVG Export Plug-In . SVG Version: 6.00 Build 0)  -->
<!DOCTYPE svg PUBLIC "-//W3C//DTD SVG 1.1//EN" "http://www.w3.org/Graphics/SVG/1.1/DTD/svg11.dtd" [
	<!ENTITY st0 "fill:#FFFFFF;">
	<!ENTITY st1 "display:none;">
]>
<svg version="1.1" id="Layer_1" xmlns="http://www.w3.org/2000/svg" xmlns:xlink="http://www.w3.org/1999/xlink" x="0px" y="0px"
	 width="50px" height="50px" viewBox="0 0 50 50" style="enable-background:new 0 0 50 50;" xml:space="preserve">
<rect x="-225" y="-225" style="&st1;" width="500" height="500"/>
<g>
	<polygon style="&st0;" points="12.473,22.825 12.473,27.176 15.726,25 	"/>
	<polygon style="&st0;" points="23.7,19.666 23.7,13.603 13.514,20.393 18.064,23.437 	"/>
	<polygon style="&st0;" points="36.486,20.393 26.301,13.603 26.301,19.666 31.936,23.437 	"/>
	<polygon style="&st0;" points="13.514,29.607 23.7,36.398 23.7,30.334 18.064,26.564 	"/>
	<polygon style="&st0;" points="26.301,30.334 26.301,36.398 36.486,29.607 31.936,26.564 	"/>
	<polygon style="&st0;" points="25,21.925 20.402,25 25,28.076 29.598,25 	"/>
	<path style="&st0;" d="M25,0.536C11.489,0.536,0.536,11.489,0.536,25c0,13.512,10.954,24.465,24.464,24.465
		c13.512,0,24.465-10.953,24.465-24.465C49.465,11.489,38.512,0.536,25,0.536z M40.127,29.609c0,0.057-0.004,0.113-0.012,0.17
		c-0.004,0.018-0.008,0.037-0.012,0.057c-0.006,0.035-0.012,0.072-0.021,0.109c-0.006,0.021-0.014,0.041-0.021,0.061
		c-0.01,0.033-0.02,0.064-0.033,0.098c-0.008,0.021-0.02,0.041-0.027,0.062c-0.016,0.029-0.029,0.057-0.045,0.086
		c-0.012,0.02-0.025,0.039-0.037,0.061c-0.018,0.027-0.035,0.053-0.055,0.078c-0.014,0.02-0.029,0.037-0.047,0.057
		c-0.02,0.023-0.041,0.047-0.062,0.07c-0.018,0.018-0.035,0.035-0.051,0.049c-0.025,0.023-0.051,0.045-0.074,0.064
		c-0.021,0.014-0.039,0.029-0.061,0.043c-0.006,0.006-0.014,0.012-0.02,0.016l-13.828,9.219c-0.218,0.146-0.469,0.219-0.721,0.219
		c-0.25,0-0.502-0.072-0.721-0.219l-13.827-9.219c-0.007-0.004-0.014-0.01-0.021-0.016c-0.02-0.014-0.04-0.029-0.059-0.043
		c-0.025-0.02-0.05-0.041-0.073-0.064c-0.018-0.014-0.035-0.031-0.053-0.049c-0.022-0.023-0.043-0.047-0.065-0.07
		c-0.015-0.02-0.03-0.037-0.044-0.057c-0.019-0.025-0.038-0.051-0.055-0.078c-0.013-0.021-0.025-0.041-0.037-0.061
		c-0.016-0.029-0.03-0.057-0.045-0.086c-0.009-0.021-0.02-0.041-0.029-0.062c-0.013-0.033-0.023-0.064-0.034-0.098
		c-0.007-0.02-0.014-0.039-0.02-0.061c-0.009-0.037-0.015-0.074-0.023-0.109c-0.003-0.02-0.007-0.039-0.01-0.057
		c-0.008-0.057-0.012-0.113-0.012-0.17v-9.218c0-0.057,0.004-0.114,0.012-0.169c0.002-0.02,0.007-0.038,0.01-0.057
		c0.008-0.037,0.014-0.074,0.023-0.109c0.006-0.022,0.013-0.042,0.02-0.063c0.011-0.032,0.021-0.064,0.034-0.094
		c0.009-0.021,0.02-0.043,0.029-0.063c0.015-0.03,0.029-0.059,0.045-0.087c0.012-0.02,0.024-0.041,0.037-0.06
		c0.017-0.027,0.036-0.054,0.055-0.079c0.014-0.02,0.029-0.039,0.044-0.057c0.021-0.024,0.042-0.047,0.065-0.07
		c0.018-0.017,0.035-0.035,0.053-0.051c0.023-0.021,0.048-0.042,0.073-0.062c0.019-0.016,0.039-0.03,0.059-0.044
		c0.007-0.005,0.015-0.012,0.021-0.017l13.827-9.217c0.437-0.291,1.006-0.291,1.442,0l13.828,9.217
		c0.006,0.005,0.014,0.011,0.02,0.017c0.021,0.014,0.039,0.029,0.061,0.044c0.023,0.02,0.049,0.041,0.074,0.062
		c0.016,0.016,0.033,0.034,0.051,0.051c0.021,0.022,0.043,0.046,0.062,0.07c0.018,0.018,0.033,0.038,0.047,0.057
		c0.02,0.025,0.037,0.051,0.055,0.079c0.012,0.019,0.025,0.04,0.037,0.06c0.016,0.028,0.029,0.057,0.045,0.087
		c0.008,0.02,0.02,0.042,0.027,0.063c0.014,0.03,0.023,0.062,0.033,0.094c0.008,0.021,0.016,0.041,0.021,0.063
		c0.01,0.035,0.016,0.072,0.021,0.109c0.004,0.019,0.008,0.037,0.012,0.057c0.008,0.055,0.012,0.112,0.012,0.169V29.609z"/>
	<polygon style="&st0;" points="37.525,27.176 37.525,22.825 34.275,25 	"/>
</g>
</svg>
