<?xml version="1.0" encoding="utf-8"?>
<!-- Generator: Adobe Illustrator 16.0.4, SVG Export Plug-In . SVG Version: 6.00 Build 0)  -->
<!DOCTYPE svg PUBLIC "-//W3C//DTD SVG 1.1//EN" "http://www.w3.org/Graphics/SVG/1.1/DTD/svg11.dtd" [
	<!ENTITY st0 "fill:#FFFFFF;">
]>
<svg version="1.1" id="Layer_1" xmlns="http://www.w3.org/2000/svg" xmlns:xlink="http://www.w3.org/1999/xlink" x="0px" y="0px"
	 width="200px" height="200px" viewBox="0 0 200 200" style="enable-background:new 0 0 200 200;" xml:space="preserve">
<g>
	<polygon style="&st0;" points="68.068,145.684 66.568,149.052 69.646,149.052 68.115,145.684 	"/>
	<polygon style="&st0;" points="107.432,145.684 105.934,149.052 109.008,149.052 107.48,145.684 	"/>
	<path style="&st0;" d="M154.156,143.837h-2.494v3.046h2.494c0.812,0,1.516-0.706,1.516-1.563
		C155.672,144.507,154.969,143.837,154.156,143.837z"/>
	<path style="&st0;" d="M49.733,143.837h-2.494v3.046h2.494c0.812,0,1.516-0.706,1.516-1.563
		C51.25,144.507,50.545,143.837,49.733,143.837z"/>
	<path style="&st0;" d="M100,0.973c-54.689,0-99.026,44.335-99.026,99.029c0,54.691,44.336,99.026,99.026,99.026
		c54.691,0,99.025-44.335,99.025-99.026C199.025,45.308,154.691,0.973,100,0.973z M92.694,32.588h14.613l-42.792,74.118h55.142
		l7.307,12.658H42.596L92.694,32.588z M128.787,120.415l-27.57-47.751l7.309-12.656l42.184,73.064H50.51l-8.522-12.657H128.787z
		 M53.071,152.265c0.106,0.202,0,0.445-0.26,0.445h-1.607c-0.137,0-0.214-0.075-0.244-0.136l-2.036-4.058h-1.698v3.903
		c0,0.154-0.139,0.29-0.291,0.29h-1.409c-0.169,0-0.29-0.136-0.29-0.29v-10.136c0-0.148,0.121-0.288,0.29-0.288h4.378
		c1.837,0,3.337,1.471,3.337,3.288c0,1.413-0.935,2.562-2.266,3.097L53.071,152.265z M59.621,152.42c0,0.154-0.139,0.29-0.292,0.29
		h-1.408c-0.168,0-0.291-0.136-0.291-0.29v-4.867l-3.489-5.114c-0.123-0.196,0-0.442,0.244-0.442h1.562
		c0.123,0,0.2,0.075,0.245,0.14l2.45,3.519l2.45-3.519c0.045-0.064,0.122-0.14,0.245-0.14h1.576c0.245,0,0.367,0.246,0.245,0.442
		l-3.535,5.102V152.42z M72.921,152.71h-1.333c-0.229,0-0.336-0.088-0.444-0.307l-0.75-1.65h-4.577l-0.749,1.65
		c-0.062,0.154-0.2,0.307-0.443,0.307h-1.333c-0.229,0-0.351-0.196-0.259-0.399l4.76-10.298c0.045-0.092,0.122-0.167,0.26-0.167
		h0.152c0.153,0,0.215,0.075,0.261,0.167l4.714,10.298C73.272,152.514,73.15,152.71,72.921,152.71z M84.384,152.587
		c0,0.155-0.139,0.277-0.291,0.277h-0.366l-6.399-7.025h-0.016v6.581c0,0.154-0.123,0.29-0.291,0.29H75.63
		c-0.154,0-0.292-0.136-0.292-0.29v-10.302c0-0.15,0.137-0.272,0.292-0.272h0.381l6.367,6.762h0.016v-6.323
		c0-0.148,0.123-0.288,0.292-0.288h1.408c0.152,0,0.291,0.14,0.291,0.288V152.587z M100.102,152.71h-1.668
		c-0.153,0-0.245-0.059-0.275-0.105l-3.995-4.926v4.667c0,0.196-0.17,0.364-0.367,0.364h-1.348c-0.215,0-0.367-0.168-0.367-0.364
		v-9.98c0-0.198,0.151-0.369,0.367-0.369h1.348c0.197,0,0.367,0.171,0.367,0.369v4.131l3.857-4.345
		c0.06-0.08,0.151-0.155,0.29-0.155h1.53c0.29,0,0.444,0.323,0.245,0.553l-3.994,4.501l4.285,5.128
		C100.529,152.374,100.407,152.71,100.102,152.71z M112.283,152.71h-1.33c-0.23,0-0.338-0.088-0.443-0.307l-0.752-1.65h-4.574
		l-0.752,1.65c-0.061,0.154-0.197,0.307-0.443,0.307h-1.332c-0.229,0-0.354-0.196-0.26-0.399l4.76-10.298
		c0.045-0.092,0.123-0.167,0.26-0.167h0.154c0.152,0,0.213,0.075,0.258,0.167l4.717,10.298
		C112.637,152.514,112.514,152.71,112.283,152.71z M123.748,152.587c0,0.155-0.141,0.277-0.291,0.277h-0.369l-6.396-7.025h-0.016
		v6.581c0,0.154-0.123,0.29-0.291,0.29h-1.393c-0.152,0-0.291-0.136-0.291-0.29v-10.302c0-0.15,0.139-0.272,0.291-0.272h0.385
		l6.363,6.762h0.02v-6.323c0-0.148,0.123-0.288,0.287-0.288h1.41c0.15,0,0.291,0.14,0.291,0.288V152.587z M136.344,152.587
		c0,0.155-0.139,0.277-0.291,0.277h-0.367l-6.396-7.025h-0.016v6.581c0,0.154-0.125,0.29-0.291,0.29h-1.395
		c-0.152,0-0.289-0.136-0.289-0.29v-10.302c0-0.15,0.137-0.272,0.289-0.272h0.381l6.369,6.762h0.016v-6.323
		c0-0.148,0.121-0.288,0.291-0.288h1.408c0.152,0,0.291,0.14,0.291,0.288V152.587z M146.705,143.543
		c0,0.155-0.123,0.294-0.293,0.294h-4.529v2.508h3.779c0.154,0,0.291,0.139,0.291,0.29v1.269c0,0.168-0.137,0.294-0.291,0.294
		h-3.779v2.679h4.529c0.17,0,0.293,0.136,0.293,0.287v1.257c0,0.154-0.123,0.29-0.293,0.29h-6.227c-0.172,0-0.291-0.136-0.291-0.29
		v-10.136c0-0.148,0.119-0.288,0.291-0.288h6.227c0.17,0,0.293,0.14,0.293,0.288V143.543z M157.494,152.265
		c0.107,0.202,0,0.445-0.262,0.445h-1.607c-0.137,0-0.213-0.075-0.242-0.136l-2.037-4.058h-1.697v3.903
		c0,0.154-0.139,0.29-0.291,0.29h-1.41c-0.168,0-0.291-0.136-0.291-0.29v-10.136c0-0.148,0.123-0.288,0.291-0.288h4.379
		c1.834,0,3.336,1.471,3.336,3.288c0,1.413-0.934,2.562-2.266,3.097L157.494,152.265z M151.984,133.072l-43.459-75.175
		l-27.572,47.755H66.341l42.185-73.064l49.488,85.719L151.984,133.072z"/>
</g>
</svg>
