<?xml version="1.0" encoding="utf-8"?>
<!-- Generator: Adobe Illustrator 16.0.4, SVG Export Plug-In . SVG Version: 6.00 Build 0)  -->
<!DOCTYPE svg PUBLIC "-//W3C//DTD SVG 1.1//EN" "http://www.w3.org/Graphics/SVG/1.1/DTD/svg11.dtd" [
	<!ENTITY st0 "fill:#FFFFFF;">
]>
<svg version="1.1" id="Layer_1" xmlns="http://www.w3.org/2000/svg" xmlns:xlink="http://www.w3.org/1999/xlink" x="0px" y="0px"
	 width="200px" height="200px" viewBox="0 0 200 200" style="enable-background:new 0 0 200 200;" xml:space="preserve">
<g>
	<polygon style="&st0;" points="65.083,145.858 63.539,149.326 66.707,149.326 65.131,145.858 	"/>
	<path style="&st0;" d="M45.886,143.951h-2.569v3.137h2.569c0.835,0,1.561-0.726,1.561-1.609
		C47.446,144.645,46.721,143.951,45.886,143.951z"/>
	<polygon style="&st0;" points="106.253,145.858 104.709,149.326 107.877,149.326 106.3,145.858 	"/>
	<path style="&st0;" d="M100,0.254C44.912,0.254,0.255,44.912,0.255,100S44.912,199.746,100,199.746s99.745-44.658,99.745-99.746
		S155.088,0.254,100,0.254z M91.537,31.147h13.067l-44.611,77.27h60.476l6.532,11.315H40.393L91.537,31.147z M49.322,152.637
		c0.11,0.205,0,0.457-0.268,0.457h-1.655c-0.142,0-0.221-0.078-0.253-0.143l-2.097-4.177h-1.749v4.02c0,0.157-0.143,0.3-0.3,0.3
		h-1.45c-0.173,0-0.3-0.143-0.3-0.3v-10.437c0-0.156,0.127-0.299,0.3-0.299h4.509c1.892,0,3.437,1.514,3.437,3.39
		c0,1.451-0.962,2.633-2.333,3.185L49.322,152.637z M56.226,152.794c0,0.157-0.143,0.3-0.3,0.3h-1.45c-0.174,0-0.3-0.143-0.3-0.3
		v-5.013l-3.594-5.265c-0.126-0.205,0-0.458,0.252-0.458h1.607c0.126,0,0.205,0.078,0.252,0.143l2.523,3.626l2.522-3.626
		c0.047-0.064,0.125-0.143,0.252-0.143h1.623c0.253,0,0.378,0.253,0.253,0.458l-3.642,5.249V152.794z M70.08,153.094h-1.371
		c-0.236,0-0.347-0.094-0.457-0.315l-0.772-1.702h-4.713l-0.773,1.702c-0.062,0.158-0.204,0.315-0.457,0.315h-1.371
		c-0.236,0-0.362-0.205-0.269-0.41l4.903-10.608c0.047-0.096,0.126-0.174,0.268-0.174h0.158c0.157,0,0.221,0.078,0.268,0.174
		l4.855,10.608C70.443,152.889,70.317,153.094,70.08,153.094z M82.044,152.967c0,0.158-0.142,0.284-0.3,0.284h-0.378l-6.59-7.235
		h-0.016v6.778c0,0.157-0.126,0.3-0.3,0.3h-1.434c-0.158,0-0.3-0.143-0.3-0.3v-10.608c0-0.157,0.142-0.284,0.3-0.284h0.394
		l6.558,6.967h0.016v-6.511c0-0.156,0.127-0.299,0.3-0.299h1.45c0.158,0,0.3,0.143,0.3,0.299V152.967z M98.546,153.094h-1.718
		c-0.158,0-0.253-0.063-0.283-0.11l-4.115-5.076v4.809c0,0.205-0.173,0.378-0.379,0.378h-1.386c-0.222,0-0.38-0.173-0.38-0.378
		v-10.279c0-0.204,0.158-0.378,0.38-0.378h1.386c0.206,0,0.379,0.174,0.379,0.378v4.258l3.973-4.478
		c0.063-0.08,0.158-0.158,0.3-0.158h1.576c0.3,0,0.457,0.332,0.252,0.567l-4.114,4.635l4.414,5.282
		C98.987,152.747,98.861,153.094,98.546,153.094z M46.865,133.312l-6.534-11.316h90.591l-30.238-52.374l6.533-11.316l43.306,75.007
		H46.865z M111.251,153.094h-1.372c-0.236,0-0.347-0.094-0.458-0.315l-0.771-1.702h-4.713l-0.773,1.702
		c-0.063,0.158-0.205,0.315-0.458,0.315h-1.37c-0.236,0-0.362-0.205-0.269-0.41l4.903-10.608c0.047-0.096,0.125-0.174,0.268-0.174
		h0.157c0.158,0,0.22,0.078,0.268,0.174l4.856,10.608C111.612,152.889,111.486,153.094,111.251,153.094z M123.214,152.967
		c0,0.158-0.142,0.284-0.3,0.284h-0.378l-6.59-7.235h-0.016v6.778c0,0.157-0.126,0.3-0.3,0.3h-1.434c-0.158,0-0.3-0.143-0.3-0.3
		v-10.608c0-0.157,0.142-0.284,0.3-0.284h0.394l6.559,6.967h0.015v-6.511c0-0.156,0.126-0.299,0.301-0.299h1.449
		c0.158,0,0.3,0.143,0.3,0.299V152.967z M136.344,152.967c0,0.158-0.143,0.284-0.301,0.284h-0.377l-6.59-7.235h-0.016v6.778
		c0,0.157-0.126,0.3-0.3,0.3h-1.436c-0.157,0-0.298-0.143-0.298-0.3v-10.608c0-0.157,0.141-0.284,0.298-0.284h0.395l6.559,6.967
		h0.016v-6.511c0-0.156,0.126-0.299,0.3-0.299h1.449c0.158,0,0.301,0.143,0.301,0.299V152.967z M147.172,143.651
		c0,0.157-0.127,0.3-0.3,0.3h-4.666v2.584h3.894c0.157,0,0.3,0.143,0.3,0.3v1.309c0,0.174-0.143,0.3-0.3,0.3h-3.894v2.758h4.666
		c0.173,0,0.3,0.143,0.3,0.3v1.293c0,0.157-0.127,0.3-0.3,0.3h-6.416c-0.174,0-0.299-0.143-0.299-0.3v-10.437
		c0-0.156,0.125-0.299,0.299-0.299h6.416c0.173,0,0.3,0.143,0.3,0.299V143.651z M158.441,152.637c0.11,0.205,0,0.457-0.268,0.457
		h-1.655c-0.142,0-0.221-0.078-0.253-0.143l-2.096-4.177h-1.751v4.02c0,0.157-0.142,0.3-0.299,0.3h-1.45
		c-0.174,0-0.299-0.143-0.299-0.3v-10.437c0-0.156,0.125-0.299,0.299-0.299h4.509c1.892,0,3.437,1.514,3.437,3.39
		c0,1.451-0.963,2.633-2.333,3.185L158.441,152.637z M153.135,133.312l-45.918-79.533L76.98,106.154H63.913l43.304-75.007
		l52.45,90.849L153.135,133.312z"/>
	<path style="&st0;" d="M155.004,143.951h-2.568v3.137h2.568c0.837,0,1.562-0.726,1.562-1.609
		C156.565,144.645,155.841,143.951,155.004,143.951z"/>
</g>
</svg>
